<svg width="17" height="24" viewBox="0 0 17 24" fill="none" xmlns="http://www.w3.org/2000/svg">
<path d="M13.2992 23.009C10.9826 23.009 8.90318 21.573 8.06023 19.3915L6.96843 16.5691C6.85644 16.3127 6.73747 16.1468 6.61149 16.0697C6.48474 15.9926 6.27943 15.9541 5.9956 15.9541H5.50958L5.22187 18.3401C4.89992 21.0053 2.66266 23.009 0.0078125 23.009L2.23729 4.66828C2.56079 2.00312 4.79959 0.00012207 7.45522 0.00012207L5.88984 12.8958H6.20869C6.4723 12.8958 6.68459 12.8549 6.84711 12.7731C7.00887 12.6913 7.17138 12.5426 7.33315 12.3272L9.61705 9.16263C10.5533 7.86584 12.0417 7.09514 13.6289 7.08649L16.3001 7.07077L11.8924 12.7424C11.6895 13.009 11.4671 13.2449 11.2236 13.4494C10.9802 13.6546 10.7267 13.8339 10.4639 13.9873C10.677 14.1619 10.8613 14.364 11.0184 14.5944C11.1754 14.8248 11.3146 15.089 11.436 15.3863L14.597 23.0098H13.2992V23.009Z" fill="black"/>
</svg>
